<?xml version="1.0" encoding="UTF-8"?>
<svg id="Capa_1" data-name="Capa 1" xmlns="http://www.w3.org/2000/svg" xmlns:xlink="http://www.w3.org/1999/xlink" viewBox="0 0 566.93 566.93">
  <defs>
    <style>
      .cls-1 {
        stroke: #1d1d1b;
        stroke-miterlimit: 10;
        stroke-width: 34px;
      }

      .cls-1, .cls-2 {
        fill: none;
      }

      .cls-3 {
        fill: #1d1d1b;
      }

      .cls-4 {
        clip-path: url(#clippath-1);
      }

      .cls-5 {
        clip-path: url(#clippath);
      }
    </style>
    <clipPath id="clippath">
      <rect class="cls-2" width="566.93" height="566.93"/>
    </clipPath>
    <clipPath id="clippath-1">
      <rect class="cls-2" width="566.93" height="566.93"/>
    </clipPath>
  </defs>
  <g class="cls-5">
    <polygon class="cls-3" points="242.33 407.91 206.78 407.91 140.9 299.85 73.97 407.91 40.86 407.91 123.47 278.24 46.09 159.02 80.94 159.02 141.94 256.62 203.29 159.02 236.41 159.02 159.37 277.54 242.33 407.91"/>
    <g class="cls-4">
      <polygon class="cls-1" points="242.33 407.91 206.78 407.91 140.9 299.85 73.97 407.91 40.86 407.91 123.47 278.24 46.09 159.02 80.94 159.02 141.94 256.62 203.29 159.02 236.41 159.02 159.37 277.54 242.33 407.91"/>
      <path class="cls-3" d="M387.34,407.91l-81.91-218.21h-1.39c.7,7.2,1.27,16.91,1.74,29.11.46,12.2.7,24.92.7,38.17v150.93h-28.93v-248.88h46.36l76.69,203.92h1.39l78.08-203.92h46.01v248.88h-31.02v-153.02c0-12.08.29-24.05.87-35.9.58-11.85,1.1-21.49,1.57-28.93h-1.4l-82.96,217.86h-25.8Z"/>
      <path class="cls-1" d="M387.34,407.91l-81.91-218.21h-1.39c.7,7.2,1.27,16.91,1.74,29.11.46,12.2.7,24.92-3.35,38.17v150.93h-24.88v-248.88h46.36l76.69,203.92h1.39l78.08-203.92h46.01v248.88h-31.02v-153.02c0-12.08.29-24.05.87-35.9.58-11.85,1.1-21.49,1.57-28.93h-1.4l-82.96,217.86h-25.8Z"/>
    </g>
  </g>
</svg>